<!-- Generated by IcoMoon.io -->
<svg version="1.1" xmlns="http://www.w3.org/2000/svg" width="512" height="512" viewBox="0 0 512 512">
<title></title>
<g id="icomoon-ignore">
</g>
<path  d="M384 0h-256c-17.664 0-32 14.336-32 32v448c0 17.664 14.336 32 32 32h256c17.664 0 32-14.336 32-32v-448c0-17.664-14.336-32-32-32zM256 480c-53.008 0-96-42.992-96-96s42.992-96 96-96 96 42.992 96 96-42.992 96-96 96zM384 240c0 8.848-7.152 16-16 16h-224c-8.832 0-16-7.152-16-16v-192c0-8.848 7.168-16 16-16h224c8.848 0 16 7.152 16 16v192zM256 352c-17.664 0-32 14.336-32 32s14.336 32 32 32 32-14.336 32-32-14.336-32-32-32z"></path>
</svg>
