<!-- Generated by IcoMoon.io -->
<svg version="1.1" xmlns="http://www.w3.org/2000/svg" width="1536" height="1536" viewBox="0 0 1536 1536">
<title></title>
<g id="icomoon-ignore">
</g>
<path  d="M672 495.999c0-44.16 35.841-80.001 80.001-80.001s80.001 35.841 80.001 80.001-35.841 80.001-80.001 80.001-80.001-35.841-80.001-80.001zM752.001 288c-114.879 0-207.999 93.12-207.999 207.999s93.12 207.999 207.999 207.999 207.999-93.12 207.999-207.999-93.12-207.999-207.999-207.999zM576 1248c35.199 0 63.999 28.8 63.999 63.999s-28.8 63.999-63.999 63.999h-240c-44.16 0.003-80.001 35.841-80.001 80.001s35.841 80.001 80.001 80.001h831.999c44.16 0 80.001-35.841 80.001-80.001s-35.841-79.998-80.001-79.998h-240c-35.199 0-63.999-28.8-63.999-63.999s28.8-63.999 63.999-63.999h192c70.719 0 128.001-57.279 128.001-128.001v-992.001c0-70.719-57.279-128.001-128.001-128.001h-735.999c-70.719 0-128.001 57.279-128.001 128.001v992.001c0 70.719 57.279 128.001 128.001 128.001l192-0.003zM927.999 1008c0-44.16 35.841-80.001 80.001-80.001s80.001 35.841 80.001 80.001-35.841 80.001-80.001 80.001-80.001-35.841-80.001-80.001zM752.001 159.999c185.598 0 336 150.402 336 336s-150.402 336-336 336-336-150.399-336-336 150.399-336 336-336z"></path>
</svg>
