<!-- Generated by IcoMoon.io -->
<svg version="1.1" xmlns="http://www.w3.org/2000/svg" width="511" height="512" viewBox="0 0 511 512">
<title></title>
<g id="icomoon-ignore">
</g>
<path  d="M450.468 59.516c-79.307-79.291-217.666-79.355-296.925 0l-89.547 89.611v-85.115h-63.996v191.988h191.988v-63.996l-80.363 0.048 87.243-87.243c55.117-55.181 151.239-55.181 206.355 0.064 27.566 27.567 42.749 64.188 42.749 103.178 0 39.038-15.183 75.675-42.749 103.322l-48.253 48.237 45.245 45.229 48.253-48.125c39.629-39.758 61.5-92.523 61.5-148.663 0-56.108-21.871-108.857-61.5-148.535zM295.166 512l-45.246-45.309 45.278-45.229 45.245 45.309z"></path>
</svg>
