<!-- Generated by IcoMoon.io -->
<svg version="1.1" xmlns="http://www.w3.org/2000/svg" width="1024" height="1024" viewBox="0 0 1024 1024">
<title></title>
<g id="icomoon-ignore">
</g>
<path d="M511.104 1024c-105.941 0-208.981-33.152-296.704-96.512v0c-110.507-79.872-183.467-198.144-205.397-333.099-21.931-134.912 9.728-270.336 89.216-381.312 79.531-111.104 197.419-184.363 331.947-206.293 134.315-21.931 269.099 9.941 379.563 89.771 110.507 79.872 183.467 198.144 205.44 333.099 21.931 134.912-9.728 270.336-89.216 381.355-79.573 111.104-197.461 184.363-331.947 206.293-27.691 4.48-55.424 6.699-82.901 6.699zM234.88 899.157c102.869 74.325 228.395 104.021 353.451 83.627 125.269-20.437 235.051-88.704 309.163-192.171 152.875-213.504 104.32-512.171-108.288-665.771-102.869-74.325-228.395-104.021-353.451-83.627-125.227 20.48-235.051 88.704-309.12 192.171-152.917 213.504-104.32 512.171 108.245 665.771zM687.403 747.605c31.189-9.131 53.163-31.317 62.208-62.635l2.645-9.216 0.341-246.912c0.256-184.917 0-248.064-1.024-251.52-1.067-3.669-2.816-6.699-5.035-9.131-3.285-2.048-7.253-3.115-11.776-3.115-3.115 0-13.867 1.493-23.893 3.328-44.416 8.107-306.176 60.203-310.656 61.867-6.912 2.603-13.781 8.661-17.024 15.104l-2.773 5.461c0 0-1.323 387.029-3.328 391.381-3.029 6.613-9.813 12.928-16.043 14.933-2.944 0.939-14.635 3.584-25.984 5.845-52.523 10.453-72.021 17.963-88.533 34.176-9.387 9.216-16.299 21.76-19.328 34.944-2.859 12.587-1.92 31.445 2.176 42.923 4.267 11.989 11.179 22.229 20.181 30.293 8.192 6.315 17.877 11.008 28.757 13.824 24.021 6.144 69.035-0.683 92.075-13.995 9.643-5.589 22.016-17.237 28.459-26.837 2.56-3.797 6.4-11.435 8.533-17.024 7.509-19.456 7.723-366.165 8.704-370.517 1.621-7.424 6.699-12.843 13.653-14.677 6.272-1.664 258.347-51.499 265.472-52.48 6.229-0.853 12.117 1.152 15.36 5.12 1.92 1.024 3.541 2.389 4.651 4.096 2.048 3.029 2.176 9.088 2.475 118.827 0.341 126.336 0.512 123.392-6.357 131.371-4.992 5.803-11.221 8.064-36.864 13.269-38.997 7.979-52.309 11.733-67.243 19.029-18.645 9.088-28.971 19.072-36.992 35.669-5.675 11.733-7.765 20.523-7.765 32.171 0.043 20.864 7.211 37.163 23.467 53.12 1.493 1.451 2.944 2.816 4.437 4.139 8.192 6.315 16.512 10.155 27.008 12.544 15.787 3.499 47.957 1.067 70.016-5.376z"></path>
</svg>
